


<svg version="1.1" id="레이어_1" xmlns="http://www.w3.org/2000/svg" xmlns:xlink="http://www.w3.org/1999/xlink" x="0px" y="0px" width="741.083px" height="296.487px" viewBox="0 0 741.083 296.487" enable-background="new 0 0 741.083 296.487" xml:space="preserve">
<g>
	<g>
		<defs>
			<rect id="SVGID_1_" x="262.894" y="31.017" width="457.647" height="235.827"></rect>
		</defs>
		<clipPath id="SVGID_2_">
			<use xlink:href="#SVGID_1_" overflow="visible"></use>
		</clipPath>
		<path clip-path="url(#SVGID_2_)" fill="#525455" d="M291.955,174.557c6.495,0,12.55-1.761,17.281-5.833v9.136
			c-5.282,3.633-11.558,5.176-18.162,5.176c-16.622,0-28.181-11.561-28.181-28.184c0-16.514,11.888-28.073,28.4-28.073
			c6.495,0,12.55,1.872,17.395,5.504v10.02c-4.294-4.624-10.238-7.047-16.844-7.047c-11.559,0-19.707,8.038-19.707,19.596
			C272.137,166.411,280.396,174.557,291.955,174.557"></path>
		<path clip-path="url(#SVGID_2_)" fill="#525455" d="M328.062,182.042h-8.917v-71.476l8.917,5.512v20.939
			c4.073-6.274,10.568-10.239,18.824-10.239c13.652,0,20.917,10.02,20.917,23.34v31.924h-9.026v-30.382
			c0-10.571-4.624-16.183-14.092-16.183c-10.017,0-16.623,8.586-16.623,19.375V182.042z"></path>
		<path clip-path="url(#SVGID_2_)" fill="#525455" d="M423.176,172.797c-4.514,6.384-11.448,10.238-19.925,10.238
			c-15.854,0-27.19-11.78-27.19-27.852c0-16.404,11.337-28.403,27.19-28.403c8.477,0,15.411,3.964,19.925,10.459v-9.468h9.028
			v54.272h-9.028V172.797z M385.308,155.072c0,11.229,7.814,19.485,18.826,19.485c11.118,0,19.042-8.256,19.042-19.485
			c0-11.448-7.924-19.815-19.042-19.815C393.122,135.257,385.308,143.624,385.308,155.072"></path>
		<path clip-path="url(#SVGID_2_)" fill="#525455" d="M454.991,182.042h-8.918v-54.272h8.918v11.559
			c4.291-8.038,11.229-12.551,19.813-12.551v10.239c-10.785-1.54-19.813,5.725-19.813,19.155V182.042z"></path>
		<path clip-path="url(#SVGID_2_)" fill="#525455" d="M566.178,158.374h-42.825c1.32,9.797,9.028,16.292,19.814,16.292
			c6.938,0,13.651-1.979,19.378-6.055v8.588c-5.836,3.962-12.439,5.834-19.378,5.834c-17.063,0-29.28-11.008-29.28-27.631
			c0-16.294,10.348-28.622,26.75-28.622c15.632,0,25.87,11.559,25.87,27.08C566.507,155.403,566.396,156.942,566.178,158.374
			 M523.463,151.109h33.578c-0.884-9.247-6.717-16.072-16.293-16.072C530.839,135.037,524.895,141.972,523.463,151.109"></path>
		<path clip-path="url(#SVGID_2_)" fill="#525455" d="M585.221,182.042h-8.918v-54.272h8.918v11.559
			c4.291-8.038,11.229-12.551,19.813-12.551v10.239c-10.785-1.54-19.813,5.725-19.813,19.155V182.042z"></path>
		<path clip-path="url(#SVGID_2_)" fill="#525455" d="M657.988,158.374h-42.826c1.322,9.797,9.029,16.292,19.816,16.292
			c6.936,0,13.65-1.979,19.377-6.055v8.588c-5.836,3.962-12.441,5.834-19.377,5.834c-17.064,0-29.281-11.008-29.281-27.631
			c0-16.294,10.346-28.622,26.75-28.622c15.631,0,25.869,11.559,25.869,27.08C658.316,155.403,658.207,156.942,657.988,158.374
			 M615.273,151.109h33.578c-0.883-9.247-6.717-16.072-16.293-16.072C622.648,135.037,616.705,141.972,615.273,151.109"></path>
		<path clip-path="url(#SVGID_2_)" fill="#525455" d="M711.516,172.722c-4.402,6.495-11.449,10.46-19.926,10.46
			c-15.854,0-27.191-11.78-27.191-27.852c0-16.404,11.338-28.403,27.191-28.403c8.477,0,15.523,4.072,19.926,10.678v-27.023
			l9.027,5.512v65.945h-9.027V172.722z M673.646,155.219c0,11.229,7.816,19.485,18.826,19.485c11.119,0,19.043-8.256,19.043-19.485
			c0-11.448-7.924-19.815-19.043-19.815C681.463,135.404,673.646,143.771,673.646,155.219"></path>
		<path clip-path="url(#SVGID_2_)" fill="#525455" d="M490.388,164.002c0,7.597,4.624,10.568,10.46,10.568
			c4.402,0,8.805-1.21,12.658-3.963v8.697c-3.743,2.752-8.918,3.854-13.43,3.854c-11.56,0-18.605-5.175-18.605-19.818v-52.785
			l8.917,5.512V164.002z"></path>
		<path clip-path="url(#SVGID_2_)" fill="#525455" d="M504.801,127.062c-2.266-1.493-5.196-1.521-7.486-0.064
			c-4.254,2.703-4.259,8.909-0.011,11.618l0.191,0.121c2.264,1.442,5.158,1.44,7.419-0.01l8.869-5.688L504.801,127.062z"></path>
		<path clip-path="url(#SVGID_2_)" fill="#525455" d="M281.497,96.293c6.384,0,11.008-2.752,11.008-7.705
			c0-2.973-1.539-5.285-5.615-6.938l-12.879-5.172c-6.606-2.863-10.239-6.606-10.239-13.652c0-9.466,7.598-15.412,18.605-15.412
			c6.385,0,12.329,1.763,16.512,4.955v9.355c-4.953-4.402-11.008-6.932-16.401-6.932c-5.725,0-9.798,2.641-9.798,7.043
			c0,3.303,1.539,5.285,5.833,6.936l12.883,5.174c6.932,2.973,10.127,7.157,10.127,12.99c0,10.349-8.367,16.733-20.147,16.733
			c-7.157,0-13.652-1.981-18.383-5.503v-9.688C268.726,93.872,275.113,96.293,281.497,96.293"></path>
		<path clip-path="url(#SVGID_2_)" fill="#525455" d="M318.486,84.515c0,7.597,4.624,10.568,10.457,10.568
			c4.405,0,8.807-1.21,12.661-3.962v8.696c-3.743,2.752-8.918,3.854-13.431,3.854c-11.559,0-18.605-5.175-18.605-19.818V36.535
			l8.918-5.518V84.515z"></path>
		<path clip-path="url(#SVGID_2_)" fill="#525455" d="M391.472,93.433c-4.513,6.384-11.448,10.238-19.926,10.238
			c-15.854,0-27.19-11.78-27.19-27.852c0-16.404,11.337-28.403,27.19-28.403c8.478,0,15.413,3.961,19.926,10.459v-9.468h9.028
			v54.273h-9.028V93.433z M353.603,75.708c0,11.229,7.816,19.485,18.826,19.485c11.119,0,19.043-8.256,19.043-19.485
			c0-11.448-7.924-19.815-19.043-19.815C361.418,55.893,353.603,64.259,353.603,75.708"></path>
		<path clip-path="url(#SVGID_2_)" fill="#525455" d="M423.286,102.678h-8.917V48.406h8.917v9.247
			c4.073-6.274,10.568-10.239,18.824-10.239c13.651,0,20.917,10.02,20.917,23.34v31.924h-9.026V72.296
			c0-10.571-4.623-16.183-14.092-16.183c-10.017,0-16.623,8.586-16.623,19.375V102.678z"></path>
		<path clip-path="url(#SVGID_2_)" fill="#525455" d="M518.4,93.21c-4.402,6.496-11.448,10.46-19.926,10.46
			c-15.853,0-27.19-11.78-27.19-27.852c0-16.404,11.338-28.403,27.19-28.403c8.478,0,15.523,4.072,19.926,10.678V36.532l9.027-5.51
			v71.658H518.4V93.21z M480.531,75.708c0,11.229,7.814,19.485,18.826,19.485c11.119,0,19.043-8.256,19.043-19.485
			c0-11.448-7.924-19.815-19.043-19.815C488.346,55.893,480.531,64.259,480.531,75.708"></path>
		<path clip-path="url(#SVGID_2_)" fill="#525455" d="M683.531,93.21c-4.402,6.496-11.449,10.46-19.926,10.46
			c-15.854,0-27.191-11.78-27.191-27.852c0-16.404,11.338-28.403,27.191-28.403c8.477,0,15.523,4.072,19.926,10.678V36.532
			l9.027-5.51v71.658h-9.027V93.21z M645.662,75.708c0,11.229,7.816,19.485,18.826,19.485c11.119,0,19.043-8.256,19.043-19.485
			c0-11.448-7.924-19.815-19.043-19.815C653.479,55.893,645.662,64.259,645.662,75.708"></path>
		<path clip-path="url(#SVGID_2_)" fill="#525455" d="M584.231,93.433c-4.513,6.384-11.448,10.238-19.925,10.238
			c-15.854,0-27.19-11.78-27.19-27.852c0-16.404,11.337-28.403,27.19-28.403c8.477,0,15.412,3.961,19.925,10.459v-9.468h9.028
			v54.273h-9.028V93.433z M546.363,75.708c0,11.229,7.814,19.485,18.826,19.485c11.118,0,19.042-8.256,19.042-19.485
			c0-11.448-7.924-19.815-19.042-19.815C554.178,55.893,546.363,64.259,546.363,75.708"></path>
		<path clip-path="url(#SVGID_2_)" fill="#525455" d="M616.047,102.678h-8.918V48.406h8.918v11.558
			c4.293-8.034,11.229-12.55,19.814-12.55v10.239c-10.787-1.54-19.814,5.725-19.814,19.155V102.678z"></path>
		<path clip-path="url(#SVGID_2_)" fill="#525455" d="M331.057,59.972c2.269,1.488,5.199,1.507,7.486,0.049
			c4.248-2.715,4.238-8.921-0.019-11.619l-0.189-0.121c-2.265-1.439-5.163-1.429-7.418,0.027l-8.856,5.709L331.057,59.972z"></path>
		<path clip-path="url(#SVGID_2_)" fill="#525455" d="M291.324,236.331l-12.893-5.18c-4.3-1.653-5.842-3.636-5.842-6.941
			c0-4.41,4.078-7.054,9.809-7.054c5.399,0,11.459,2.536,16.418,6.943v-9.369c-4.186-3.194-10.139-4.958-16.529-4.958
			c-11.019,0-18.624,5.952-18.624,15.429c0,7.052,3.638,10.8,10.249,13.663l12.893,5.18c4.079,1.653,5.621,3.968,5.621,6.943
			c0,4.959-4.629,7.713-11.019,7.713c-6.393,0-12.785-2.425-18.516-7.823v9.698c4.74,3.527,11.24,5.509,18.405,5.509
			c11.791,0,20.166-6.393,20.166-16.749C301.462,243.493,298.264,239.306,291.324,236.331"></path>
		<path clip-path="url(#SVGID_2_)" fill="#525455" d="M316.968,237.873c0-11.569,8.153-19.614,19.726-19.614
			c6.611,0,12.564,2.425,16.86,7.051v-10.027c-4.848-3.635-10.911-5.51-17.411-5.51c-16.531,0-28.43,11.57-28.43,28.101
			c0,16.64,11.569,28.212,28.208,28.212c6.614,0,12.894-1.542,18.184-5.18v-9.147c-4.737,4.078-10.8,5.842-17.301,5.842
			C325.232,257.599,316.968,249.443,316.968,237.873"></path>
		<polygon clip-path="url(#SVGID_2_)" fill="#525455" points="508.695,249.677 500.766,249.677 500.766,266.192 545.173,266.192 
			545.173,259.484 508.695,259.484 		"></polygon>
		<rect x="495.151" y="239.516" clip-path="url(#SVGID_2_)" fill="#525455" width="53.995" height="6.668"></rect>
		<polygon clip-path="url(#SVGID_2_)" fill="#525455" points="603.045,209.81 603.045,223.454 596.693,223.454 596.693,209.81 
			589.652,209.81 589.652,242.801 596.693,242.801 596.693,229.657 603.045,229.657 603.045,244.195 609.883,244.195 
			609.883,209.81 		"></polygon>
		<polygon clip-path="url(#SVGID_2_)" fill="#525455" points="585.498,212.798 575.227,212.798 575.227,207.758 567.433,207.758 
			567.433,212.798 557.162,212.798 557.162,218.431 585.498,218.431 		"></polygon>
		<path clip-path="url(#SVGID_2_)" fill="#525455" d="M439.524,234.224c3.446,2.665,7.422,4.019,11.813,4.019
			c4.439,0,8.426-1.364,11.851-4.057c3.448-2.709,5.196-6.282,5.196-10.619s-1.748-7.899-5.196-10.587
			c-3.425-2.668-7.414-4.021-11.851-4.021c-4.438,0-8.424,1.354-11.849,4.021c-3.448,2.688-5.198,6.25-5.198,10.587
			C434.291,227.95,436.052,231.537,439.524,234.224 M444.456,217.604c1.996-1.626,4.311-2.45,6.882-2.45s4.888,0.811,6.884,2.409
			c1.975,1.583,2.977,3.549,2.977,5.842c0,2.299-1.005,4.311-2.982,5.974c-1.995,1.681-4.31,2.531-6.878,2.531
			s-4.883-0.851-6.879-2.531c-1.977-1.663-2.979-3.673-2.979-5.974C441.48,221.165,442.479,219.21,444.456,217.604"></path>
		<path clip-path="url(#SVGID_2_)" fill="#525455" d="M506.107,231.832c3.91,2.401,9.307,3.616,16.039,3.616
			c6.692,0,12.091-1.239,16.045-3.687c4.002-2.474,6.033-5.706,6.033-9.605c0-3.806-2.031-6.992-6.033-9.469
			c-3.957-2.444-9.353-3.687-16.045-3.687c-6.732,0-12.132,1.264-16.045,3.757c-3.96,2.522-5.966,5.685-5.966,9.398
			C500.136,226.147,502.145,229.404,506.107,231.832 M511.83,217.316c2.85-1.367,6.322-2.061,10.322-2.061
			c4.094,0,7.566,0.707,10.318,2.096c2.669,1.35,4.024,2.989,4.024,4.88c0,1.788-1.277,3.392-3.794,4.764
			c-2.59,1.413-6.139,2.131-10.549,2.131c-4.408,0-7.981-0.731-10.617-2.171c-2.559-1.396-3.858-3.014-3.858-4.805
			C507.677,220.265,509.072,218.639,511.83,217.316"></path>
		<path clip-path="url(#SVGID_2_)" fill="#525455" d="M571.492,243.653c4.132,0,7.557-1.078,10.173-3.201
			c2.639-2.141,3.976-4.966,3.976-8.391c0-3.479-1.318-6.278-3.916-8.318c-2.573-2.017-5.995-3.041-10.171-3.041
			c-4.045,0-7.424,1.021-10.04,3.039c-2.643,2.039-3.981,4.785-3.981,8.164c0,3.476,1.348,6.338,4.005,8.507
			C564.176,242.564,567.524,243.653,571.492,243.653 M565.953,228.097c1.531-1.051,3.419-1.583,5.611-1.583
			c2.347,0,4.259,0.529,5.68,1.574c1.401,1.032,2.082,2.323,2.082,3.938c0,1.629-0.661,2.971-2.02,4.103
			c-1.361,1.137-3.295,1.713-5.742,1.713c-2.241,0-4.138-0.578-5.639-1.724c-1.485-1.132-2.209-2.468-2.209-4.092
			C563.717,230.414,564.448,229.128,565.953,228.097"></path>
		<path clip-path="url(#SVGID_2_)" fill="#525455" d="M602.631,248.371c-3.994-1.971-9.932-2.973-17.653-2.973
			c-7.671,0-13.641,0.958-17.749,2.844c-4.186,1.926-6.309,4.502-6.309,7.659c0,3.151,2.096,5.804,6.233,7.875
			c4.062,2.036,10.012,3.07,17.687,3.07c7.719,0,13.682-1.002,17.721-2.974c4.113-2.009,6.201-4.606,6.201-7.718
			C608.762,253,606.699,250.383,602.631,248.371 M595.783,259.703c-2.721,0.976-6.374,1.47-10.859,1.47
			c-4.683,0-8.461-0.494-11.229-1.47c-2.642-0.932-3.983-2.195-3.983-3.754c0-1.599,1.337-2.835,3.976-3.678
			c2.768-0.882,6.524-1.326,11.163-1.326c4.59,0,8.283,0.444,10.979,1.326c2.566,0.84,3.867,2.101,3.867,3.751
			C599.695,257.532,598.379,258.771,595.783,259.703"></path>
		<polygon clip-path="url(#SVGID_2_)" fill="#525455" points="475.903,214.399 475.903,237.092 483.694,237.092 483.694,209.813 
			483.631,209.813 		"></polygon>
		<polygon clip-path="url(#SVGID_2_)" fill="#525455" points="437.74,247.578 476.946,247.578 476.946,251.523 437.74,251.523 
			437.74,266.212 483.631,266.212 483.631,260.652 444.362,260.652 444.362,256.727 483.631,256.727 483.631,241.612 
			437.74,241.612 		"></polygon>
		<path clip-path="url(#SVGID_2_)" fill="#525455" d="M386.801,232.956v-14.656h9.114v-6.914h-25.972v6.914h8.999v14.656
			c-0.235,16.663-12.173,29.132-12.288,29.237l-0.168,0.151l5.583,4.502l0.121-0.132c4.788-5.115,8.41-11.687,10.765-19.531h0.011
			h0.03h0.011c2.355,7.845,5.977,14.416,10.765,19.531l0.122,0.132l5.585-4.502l-0.17-0.151
			C399.191,262.087,387.031,249.619,386.801,232.956"></path>
		<polygon clip-path="url(#SVGID_2_)" fill="#525455" points="415.986,266.203 423.438,266.203 423.438,214.248 415.986,209.826 		
			"></polygon>
		<polygon clip-path="url(#SVGID_2_)" fill="#525455" points="402.821,230.504 394.79,230.504 394.79,237.974 402.821,237.974 
			402.867,266.202 410.318,266.202 410.318,214.294 402.87,209.874 		"></polygon>
	</g>
	<g>
		<path fill="#38D200" d="M154.652,281.747L39.364,206.688c0,0-14.462-8.312-17.769-23.795
			c-4.651-21.749,10.679-40.388,10.679-40.388l149.627,97.447c11.539,7.522,14.691,22.91,7.272,34.518
			C181.551,286.398,165.889,289.025,154.652,281.747"></path>
		<path fill="#0473EA" d="M45.448,126.422c0,0-17.659-10.664-17.659-35.327c0-24.58,17.653-35.11,17.653-35.11l63.027-41.25
			c11.554-7.512,27.003-4.233,34.512,7.317c7.511,11.551,4.234,27.004-7.321,34.513L82.54,91.154l90.511,58.949
			c0,0,16.292,9.336,19.501,25.09c4.481,21.982-10.649,40.095-10.649,40.095L45.448,126.422z"></path>
		<path fill="#38D200" d="M164.083,65.31c-5.917,0-10.133,1.866-14.241,4.541L119.078,89.89l30.765,20.038
			c4.15,2.675,8.503,4.544,14.241,4.544c13.575,0,24.58-11.008,24.58-24.582C188.664,76.317,177.658,65.307,164.083,65.31"></path>
		<path fill="#0473EA" d="M45.122,285.723c5.917,0,10.132-1.866,14.24-4.541l30.769-20.039l-30.769-20.038
			c-4.15-2.672-8.502-4.544-14.24-4.544c-13.575,0-24.58,11.007-24.58,24.582C20.542,274.715,31.547,285.726,45.122,285.723"></path>
	</g>
</g>
</svg>
