
<svg xmlns="http://www.w3.org/2000/svg" xmlns:xlink="http://www.w3.org/1999/xlink" width="2533pt" height="367pt" viewBox="0 0 2533 367" version="1.1">
<g id="surface1">
<path style="stroke:none;fill-rule:nonzero;fill:rgb(98.039216%,74.509804%,0%);fill-opacity:1" d="M 230.351562 0 L 157.953125 36.324219 L 85.671875 0 L 157.953125 137.535156 Z M 230.351562 0 "></path>
<path style="stroke:none;fill-rule:nonzero;fill:rgb(98.039216%,74.509804%,0%);fill-opacity:1" d="M 255.621094 106.386719 L 254.5625 105.796875 L 306.160156 84.167969 L 306.160156 11.050781 L 216.484375 49.253906 L 166.769531 143.296875 C 206.453125 147.964844 235.617188 182.769531 233.277344 222.664062 C 230.941406 262.5625 197.910156 293.71875 157.953125 293.71875 C 117.996094 293.71875 84.964844 262.5625 82.628906 222.664062 C 80.289062 182.769531 109.453125 147.964844 149.136719 143.296875 L 99.539062 49.253906 L 9.511719 11.050781 L 9.511719 83.699219 L 61.578125 105.796875 L 60.402344 106.855469 C 13.707031 147.5625 -2.835938 212.976562 18.894531 270.996094 C 40.625 329.011719 96.070312 367.457031 158.011719 367.457031 C 219.957031 367.457031 275.398438 329.011719 297.128906 270.996094 C 318.859375 212.976562 302.316406 147.5625 255.621094 106.855469 Z M 255.621094 106.386719 "></path>
<path style="stroke:none;fill-rule:nonzero;fill:rgb(0%,35.686275%,67.45098%);fill-opacity:1" d="M 2168.546875 220.882812 L 1854.738281 220.882812 L 1841.457031 199.839844 L 2168.546875 199.839844 C 2171.953125 199.839844 2172.660156 204.070312 2172.660156 210.417969 C 2172.660156 216.765625 2172.070312 220.882812 2168.546875 220.882812 Z M 2010.820312 171.863281 C 1929.488281 171.863281 1867.785156 151.171875 1867.785156 107.914062 C 1867.785156 64.652344 1929.488281 43.964844 2010.820312 43.964844 C 2092.152344 43.964844 2153.855469 64.652344 2153.855469 107.914062 C 2153.855469 151.171875 2092.152344 171.863281 2010.820312 171.863281 Z M 2157.261719 329.972656 L 1890 329.972656 C 1877.535156 329.972656 1867.433594 319.867188 1867.433594 307.402344 L 1867.433594 239.691406 L 1905.042969 239.691406 C 1911.535156 239.691406 1916.796875 244.953125 1916.796875 251.445312 L 1916.796875 298.464844 C 1916.789062 304.734375 1921.699219 309.910156 1927.960938 310.222656 L 2157.261719 310.222656 C 2160.554688 310.222656 2161.375 314.335938 2161.375 320.800781 C 2161.375 327.265625 2160.320312 329.972656 2157.261719 329.972656 Z M 2010.820312 65.007812 C 1957.34375 65.007812 1918.207031 78.171875 1918.207031 107.914062 C 1918.207031 137.65625 1957.34375 150.820312 2010.820312 150.820312 C 2064.296875 150.820312 2103.433594 137.65625 2103.433594 107.914062 C 2103.433594 78.171875 2064.296875 65.007812 2010.820312 65.007812 Z M 2010.820312 65.007812 "></path>
<path style="stroke:none;fill-rule:nonzero;fill:rgb(0%,35.686275%,67.45098%);fill-opacity:1" d="M 2507.621094 245.097656 L 2450.03125 245.097656 C 2462.679688 251.011719 2470.78125 263.695312 2470.835938 277.660156 C 2470.835938 309.515625 2432.988281 323.269531 2381.511719 323.269531 C 2330.03125 323.269531 2292.1875 309.515625 2292.1875 277.660156 C 2292.1875 245.804688 2330.03125 231.578125 2381.511719 231.578125 L 2520.667969 231.578125 L 2520.667969 55.25 C 2520.667969 48.757812 2515.40625 43.496094 2508.914062 43.496094 L 2473.65625 43.496094 L 2473.65625 104.152344 L 2447.328125 104.152344 L 2447.328125 55.25 C 2447.328125 48.757812 2442.066406 43.496094 2435.574219 43.496094 L 2400.316406 43.496094 L 2400.316406 198.3125 L 2447.328125 198.3125 L 2447.328125 126.722656 L 2473.65625 126.722656 L 2473.65625 212.652344 L 2381.511719 212.652344 C 2300.414062 212.652344 2239.535156 234.871094 2239.535156 278.246094 C 2239.535156 321.625 2300.414062 343.84375 2381.511719 343.84375 C 2462.605469 343.84375 2523.488281 321.625 2523.488281 278.246094 C 2523.40625 265.382812 2517.585938 253.230469 2507.621094 245.097656 Z M 2507.621094 245.097656 "></path>
<path style="stroke:none;fill-rule:nonzero;fill:rgb(0%,35.686275%,67.45098%);fill-opacity:1" d="M 2381.746094 131.777344 C 2381.621094 119.332031 2377.5 107.257812 2369.992188 97.332031 L 2322.980469 97.332031 C 2331.128906 106.765625 2335.335938 118.972656 2334.734375 131.425781 C 2334.734375 153.875 2324.859375 177.738281 2297.125 177.738281 C 2273.617188 177.738281 2258.925781 155.40625 2258.925781 131.425781 C 2258.925781 107.441406 2272.796875 83.699219 2296.769531 83.699219 L 2387.859375 83.699219 C 2390.679688 83.699219 2391.265625 78.289062 2391.265625 72.648438 C 2391.265625 67.003906 2391.265625 62.773438 2387.859375 62.773438 L 2320.863281 62.773438 L 2320.863281 44.90625 C 2321 39.605469 2316.875 35.167969 2311.582031 34.914062 L 2270.679688 34.914062 L 2270.679688 62.773438 L 2197.457031 62.773438 L 2208.507812 83.699219 L 2236.242188 83.699219 C 2221.144531 95.019531 2212.398438 112.90625 2212.738281 131.777344 C 2212.738281 168.921875 2246 198.664062 2296.769531 198.664062 C 2347.542969 198.664062 2381.746094 168.921875 2381.746094 131.777344 Z M 2381.746094 131.777344 "></path>
<path style="stroke:none;fill-rule:nonzero;fill:rgb(0%,35.686275%,67.45098%);fill-opacity:1" d="M 1368.515625 224.644531 C 1382.6875 232.769531 1391.363281 247.921875 1391.199219 264.257812 C 1391.199219 302.464844 1350.0625 319.980469 1299.171875 319.980469 C 1248.28125 319.980469 1207.148438 302.464844 1207.148438 264.257812 C 1207.148438 226.054688 1247.695312 208.65625 1299.171875 208.65625 L 1451.964844 208.65625 C 1454.207031 208.53125 1455.960938 206.671875 1455.960938 204.425781 C 1456.582031 200.136719 1456.582031 195.78125 1455.960938 191.492188 C 1455.722656 189.449219 1454.019531 187.894531 1451.964844 187.847656 L 1323.03125 187.847656 L 1323.03125 148 L 1445.265625 148 C 1447.488281 147.933594 1449.261719 146.113281 1449.261719 143.882812 C 1449.882812 139.558594 1449.882812 135.164062 1449.261719 130.835938 C 1448.964844 128.796875 1447.207031 127.289062 1445.144531 127.308594 L 1213.375 127.308594 C 1206.886719 127.308594 1201.625 122.046875 1201.625 115.554688 L 1201.625 59.363281 C 1201.625 52.871094 1196.359375 47.609375 1189.871094 47.609375 L 1153.4375 47.609375 L 1153.4375 126.25 C 1153.757812 138.347656 1163.789062 147.910156 1175.882812 147.644531 L 1274.84375 147.644531 L 1274.84375 188.085938 L 1132.867188 188.085938 L 1146.617188 208.890625 L 1188.8125 208.890625 C 1170.375 220.304688 1159.167969 240.457031 1159.195312 262.144531 C 1159.195312 316.570312 1221.839844 341.375 1299.171875 341.375 C 1376.507812 341.375 1439.152344 316.570312 1439.152344 262.144531 C 1439.570312 248.785156 1435.425781 235.683594 1427.398438 224.996094 Z M 1368.515625 224.644531 "></path>
<path style="stroke:none;fill-rule:nonzero;fill:rgb(0%,35.686275%,67.45098%);fill-opacity:1" d="M 1634.136719 97.453125 C 1636.65625 100.34375 1638.863281 103.496094 1640.714844 106.855469 C 1645.109375 114.46875 1647.417969 123.105469 1647.417969 131.894531 C 1647.417969 159.617188 1624.945312 182.089844 1597.230469 182.089844 C 1569.515625 182.089844 1547.046875 159.617188 1547.046875 131.894531 C 1546.652344 104.304688 1568.59375 81.574219 1596.171875 80.992188 L 1704.183594 80.992188 C 1706.410156 80.929688 1708.179688 79.105469 1708.179688 76.878906 C 1708.863281 72.4375 1708.863281 67.917969 1708.179688 63.480469 C 1707.9375 61.390625 1706.164062 59.820312 1704.066406 59.835938 L 1621.792969 59.835938 L 1621.792969 48.078125 C 1621.792969 41.585938 1616.53125 36.324219 1610.042969 36.324219 L 1572.667969 36.324219 L 1572.667969 59.835938 L 1478.640625 59.835938 C 1480.523438 62.65625 1492.039062 80.289062 1492.628906 80.992188 L 1527.886719 80.992188 C 1510.402344 92.171875 1499.441406 111.160156 1498.503906 131.894531 C 1498.503906 171.390625 1538.347656 203.367188 1597.230469 203.367188 C 1636.839844 203.367188 1665.867188 188.90625 1682.792969 167.277344 L 1751.195312 167.277344 L 1751.195312 244.863281 L 1569.726562 244.863281 L 1569.726562 223.351562 C 1569.726562 216.859375 1564.464844 211.59375 1557.976562 211.59375 L 1520.71875 211.59375 L 1520.71875 308.105469 C 1520.902344 314.136719 1523.488281 319.839844 1527.90625 323.949219 C 1532.324219 328.054688 1538.199219 330.226562 1544.222656 329.972656 L 1801.851562 329.972656 L 1801.851562 54.308594 C 1801.851562 47.816406 1796.589844 42.554688 1790.097656 42.554688 L 1752.605469 42.554688 L 1752.605469 97.453125 Z M 1751.664062 309.046875 L 1576.425781 309.046875 C 1574.671875 309.109375 1572.96875 308.457031 1571.703125 307.238281 C 1570.441406 306.019531 1569.726562 304.335938 1569.726562 302.582031 L 1569.726562 266.023438 L 1751.195312 266.023438 Z M 1751.664062 146.351562 L 1693.722656 146.351562 C 1695.042969 141.726562 1695.714844 136.941406 1695.722656 132.128906 C 1695.703125 127.691406 1695.148438 123.269531 1694.074219 118.964844 L 1751.195312 118.964844 Z M 1751.664062 146.351562 "></path>
<path style="stroke:none;fill-rule:nonzero;fill:rgb(0%,35.686275%,67.45098%);fill-opacity:1" d="M 1065.054688 49.84375 L 1021.683594 49.84375 L 1021.683594 161.753906 L 843.976562 161.753906 L 843.976562 49.84375 L 801.078125 49.84375 C 789.894531 50.898438 781.625 60.738281 782.511719 71.941406 L 782.511719 308.578125 C 781.691406 319.757812 789.925781 329.558594 801.078125 330.675781 L 843.976562 330.675781 L 843.976562 210.417969 L 1021.683594 210.417969 L 1021.683594 330.675781 L 1065.054688 330.675781 C 1076.253906 329.617188 1084.558594 319.800781 1083.738281 308.578125 L 1083.738281 71.941406 C 1084.195312 66.53125 1082.480469 61.164062 1078.976562 57.019531 C 1075.472656 52.871094 1070.460938 50.292969 1065.054688 49.84375 Z M 1065.054688 49.84375 "></path>
<path style="stroke:none;fill-rule:nonzero;fill:rgb(0%,35.686275%,67.45098%);fill-opacity:1" d="M 710.230469 49.84375 L 666.859375 49.84375 L 666.859375 264.964844 L 536.519531 93.101562 C 514.894531 68.0625 499.964844 49.84375 465.296875 49.84375 L 420.867188 49.84375 L 420.867188 308.457031 C 420.050781 319.683594 428.355469 329.5 439.554688 330.558594 L 483.160156 330.558594 L 483.160156 114.613281 L 614.324219 285.300781 C 636.417969 310.925781 656.164062 330.675781 688.25 330.675781 L 728.796875 330.675781 L 728.796875 72.058594 C 729.75 60.8125 721.464844 50.898438 710.230469 49.84375 Z M 710.230469 49.84375 "></path>
</g>
</svg>
